<?xml version="1.0" encoding="iso-8859-1"?>
<!-- Uploaded to: SVG Repo, www.svgrepo.com, Generator: SVG Repo Mixer Tools -->
<svg fill="#000000" height="800px" width="800px" version="1.1" id="Layer_1" xmlns="http://www.w3.org/2000/svg" xmlns:xlink="http://www.w3.org/1999/xlink" 
	 viewBox="0 0 504 504" xml:space="preserve">
<g>
	<g>
		<path d="M194.4,130.8c-37.6,17.6-65.2,52-74,93.6c3.6,0,59.6,0.8,124-16.4C221.2,166.8,196.4,133.2,194.4,130.8z"/>
	</g>
</g>
<g>
	<g>
		<path d="M255.6,228.8C186.4,249.6,120,248,117.6,248c0,1.2,0,2.8,0,4.4c0,34.4,13.2,66,34.4,89.6c0,0,36.8-65.6,109.2-88.8
			c1.6-0.4,3.6-1.2,5.2-1.6C263.2,244,259.2,236.4,255.6,228.8z"/>
	</g>
</g>
<g>
	<g>
		<path d="M252,117.6c-10.8,0-21.6,1.2-31.6,3.6c2,2.8,27.2,36,50.4,78.4c50.4-18.8,69.6-48,70-48.4
			C317.2,130.4,286,117.6,252,117.6z"/>
	</g>
</g>
<g>
	<g>
		<path d="M300.8,267.6c17.6,48.4,24.8,87.6,26,96c30-20.4,51.6-52.8,57.6-90C382,272.4,344.4,260.4,300.8,267.6z"/>
	</g>
</g>
<g>
	<g>
		<path d="M377.6,0H126C56.8,0,0,56.8,0,126.4V378c0,69.2,56.8,126,126,126h251.6c69.6,0,126.4-56.8,126.4-126.4V126.4
			C504,56.8,447.2,0,377.6,0z M406,283.6c-2,10-5.2,20-9.2,29.6c-4,9.2-8.8,18.4-14.4,26.8c-5.6,8.4-12,16-19.2,23.2
			s-14.8,13.6-23.2,19.2c-8.4,5.6-17.2,10.4-26.8,14.4c-9.6,4-19.6,7.2-29.6,9.2c-10.4,2-20.8,3.2-31.6,3.2
			c-10.8,0-21.2-1.2-31.6-3.2c-10-2-20-5.2-29.6-9.2c-9.2-4-18.4-8.8-26.8-14.4c-8.4-5.6-16-12-23.2-19.2
			c-7.2-7.2-13.6-14.8-19.2-23.2c-5.6-8.4-10.4-17.2-14.4-26.8c-4-9.6-7.2-19.6-9.2-29.6c-2-10.4-3.2-21.2-3.2-31.6
			c0-10.8,1.2-21.2,3.2-31.6c2-10,5.2-20,9.2-29.6c4-9.2,8.8-18.4,14.4-26.8c5.6-8.4,12-16,19.2-23.2c7.2-7.2,14.8-13.6,23.2-19.2
			c8.4-5.6,17.2-10.4,26.8-14.4c9.6-4,19.6-7.2,29.6-9.2c10.4-2,21.2-3.2,31.6-3.2c10.8,0,21.2,1.2,31.6,3.2c10,2,20,5.2,29.6,9.2
			c9.2,4,18.4,8.8,26.8,14.4c8.4,5.6,16,12,23.2,19.2s13.6,14.8,19.2,23.2c5.6,8.4,10.4,17.2,14.4,26.8c4,9.6,7.2,19.6,9.2,29.6
			c2,10.4,3.2,20.8,3.2,31.6S408,273.2,406,283.6z"/>
	</g>
</g>
<g>
	<g>
		<path d="M275.6,273.6c0,0-0.4,0.4-0.8,0.4c-79.2,27.6-105.2,83.2-105.2,84c22.8,17.6,51.2,28.4,82.4,28.4c18.4,0,36.4-4,52.4-10.8
			C302.4,364,294.8,322.8,275.6,273.6z"/>
	</g>
</g>
<g>
	<g>
		<path d="M355.6,166.8c0,0.4-21.6,31.6-74.8,53.2c3.2,6.4,6,12.8,8.8,19.6c0.8,2.4,2,4.8,2.8,6.8c46-6,91.6,4,93.6,4.4
			C385.6,218.8,374.4,189.6,355.6,166.8z"/>
	</g>
</g>
</svg>