<svg width="100" height="100" viewBox="0 0 100 100" fill="none" xmlns="http://www.w3.org/2000/svg">
<rect x="16" y="16" width="68" height="74" fill="white"/>
<path d="M38.5714 25.9525C31.1111 29.4446 25.6349 36.27 23.8889 44.5239C24.6031 44.5239 35.7143 44.6827 48.492 41.27C43.8889 33.0954 38.9682 26.4287 38.5714 25.9525Z" fill="black"/>
<path d="M50.7141 45.3969C36.984 49.5239 23.8094 49.2064 23.3332 49.2064C23.3332 49.4445 23.3332 49.762 23.3332 50.0794C23.3332 56.9048 25.9522 63.1747 30.1586 67.8572C30.1586 67.8572 37.4602 54.8413 51.8253 50.2381C52.1427 50.1588 52.5395 50.0001 52.857 49.9207C52.2221 48.4128 51.4284 46.9048 50.7141 45.3969Z" fill="black"/>
<path d="M49.9999 23.3332C47.8571 23.3332 45.7142 23.5713 43.7301 24.0475C44.1269 24.603 49.1269 31.1903 53.7301 39.603C63.7301 35.8729 67.5396 30.0792 67.619 29.9999C62.9364 25.8729 56.746 23.3332 49.9999 23.3332Z" fill="black"/>
<path d="M59.6827 53.0952C63.1748 62.6983 64.6034 70.4761 64.8415 72.1428C70.7938 68.0952 75.0796 61.6666 76.27 54.2856C75.7939 54.0475 68.3335 51.6666 59.6827 53.0952Z" fill="black"/>
<path d="M74.9206 0H25C11.2698 0 0 11.2698 0 25.0794V75C0 88.7302 11.2698 100 25 100H74.9206C88.7302 100 100 88.7302 100 74.9206V25.0794C100 11.2698 88.7302 0 74.9206 0ZM80.5556 56.2698C80.1587 58.254 79.5238 60.2381 78.7302 62.1429C77.9365 63.9683 76.9841 65.7937 75.873 67.4603C74.7619 69.127 73.4921 70.6349 72.0635 72.0635C70.6349 73.4921 69.127 74.7619 67.4603 75.873C65.7937 76.9841 64.0476 77.9365 62.1429 78.7302C60.2381 79.5238 58.254 80.1587 56.2698 80.5556C54.2064 80.9524 52.1429 81.1905 50 81.1905C47.8571 81.1905 45.7937 80.9524 43.7302 80.5556C41.746 80.1587 39.7619 79.5238 37.8571 78.7302C36.0317 77.9365 34.2063 76.9841 32.5397 75.873C30.873 74.7619 29.3651 73.4921 27.9365 72.0635C26.5079 70.6349 25.2381 69.127 24.127 67.4603C23.0159 65.7937 22.0635 64.0476 21.2698 62.1429C20.4762 60.2381 19.8413 58.254 19.4444 56.2698C19.0476 54.2064 18.8095 52.0635 18.8095 50C18.8095 47.8571 19.0476 45.7937 19.4444 43.7302C19.8413 41.746 20.4762 39.7619 21.2698 37.8571C22.0635 36.0317 23.0159 34.2063 24.127 32.5397C25.2381 30.873 26.5079 29.3651 27.9365 27.9365C29.3651 26.5079 30.873 25.2381 32.5397 24.127C34.2063 23.0159 35.9524 22.0635 37.8571 21.2698C39.7619 20.4762 41.746 19.8413 43.7302 19.4444C45.7937 19.0476 47.9365 18.8095 50 18.8095C52.1429 18.8095 54.2064 19.0476 56.2698 19.4444C58.254 19.8413 60.2381 20.4762 62.1429 21.2698C63.9683 22.0635 65.7937 23.0159 67.4603 24.127C69.127 25.2381 70.6349 26.5079 72.0635 27.9365C73.4921 29.3651 74.7619 30.873 75.873 32.5397C76.9841 34.2063 77.9365 35.9524 78.7302 37.8571C79.5238 39.7619 80.1587 41.746 80.5556 43.7302C80.9524 45.7937 81.1905 47.8571 81.1905 50C81.1905 52.1429 80.9524 54.2064 80.5556 56.2698Z" fill="black"/>
<path d="M54.6826 54.2857C54.6826 54.2857 54.6032 54.3651 54.5238 54.3651C38.8095 59.8413 33.6508 70.873 33.6508 71.0318C38.1746 74.5238 43.8095 76.6667 50 76.6667C53.6508 76.6667 57.2222 75.873 60.3968 74.5238C60 72.2222 58.4921 64.0476 54.6826 54.2857Z" fill="black"/>
<path d="M70.5556 33.0952C70.5556 33.1746 66.2699 39.3651 55.7144 43.6508C56.3493 44.9206 56.9048 46.1905 57.4604 47.5397C57.6191 48.0159 57.8572 48.4921 58.0159 48.8889C67.1429 47.6984 76.1905 49.6825 76.5874 49.7619C76.508 43.4127 74.2858 37.6191 70.5556 33.0952Z" fill="black"/>
</svg>
