<svg width="100" height="100" viewBox="0 0 100 100" fill="none" xmlns="http://www.w3.org/2000/svg">
<rect width="100" height="100" rx="22" fill="black"/>
<path d="M79.0759 33.8277C76.0429 28.6383 71.9287 24.5299 66.7324 21.5016C61.5353 18.473 55.8616 16.9591 49.7074 16.9591C43.5539 16.9591 37.8783 18.4735 32.6823 21.5016C27.4856 24.5298 23.3716 28.6383 20.3385 33.8277C17.3059 39.0168 15.7896 44.6834 15.7896 50.8273C15.7896 58.2075 17.9459 64.844 22.2595 70.7385C26.5728 76.6334 32.1448 80.7124 38.9752 82.976C39.7703 83.1234 40.3589 83.0198 40.7415 82.6677C41.1244 82.3153 41.3156 81.8738 41.3156 81.3452C41.3156 81.257 41.308 80.4636 41.2933 78.9639C41.2781 77.4642 41.271 76.1559 41.271 75.0396L40.2552 75.2151C39.6076 75.3336 38.7905 75.3838 37.8041 75.3695C36.8181 75.3558 35.7946 75.2526 34.7348 75.0608C33.6746 74.8706 32.6885 74.4296 31.7757 73.7387C30.8634 73.0478 30.2157 72.1434 29.8329 71.027L29.3913 70.0122C29.0969 69.3365 28.6335 68.586 28.0003 67.7634C27.3672 66.9399 26.727 66.3817 26.0793 66.0877L25.7701 65.8667C25.5641 65.7198 25.3729 65.5426 25.1961 65.3371C25.0194 65.1315 24.8872 64.9257 24.7988 64.7197C24.7104 64.5135 24.7837 64.3443 25.0196 64.2116C25.2555 64.079 25.6818 64.0146 26.3004 64.0146L27.1833 64.1463C27.7722 64.2642 28.5006 64.6162 29.3695 65.2045C30.2379 65.7924 30.9517 66.5567 31.5112 67.4971C32.1887 68.7028 33.005 69.6215 33.9623 70.2537C34.9189 70.886 35.8834 71.2015 36.8548 71.2015C37.8262 71.2015 38.6652 71.128 39.3721 70.9817C40.0783 70.8347 40.7408 70.6136 41.3594 70.3199C41.6243 68.3492 42.3458 66.8353 43.5231 65.7771C41.8451 65.601 40.3364 65.3358 38.9964 64.9832C37.6571 64.6301 36.2732 64.057 34.8454 63.2625C33.4169 62.469 32.2319 61.4837 31.29 60.3082C30.348 59.1321 29.5749 57.5881 28.9718 55.6776C28.3683 53.7663 28.0665 51.5615 28.0665 49.0626C28.0665 45.5045 29.2298 42.4768 31.5558 39.9776C30.4662 37.3026 30.569 34.3039 31.8647 30.9817C32.7185 30.7168 33.9848 30.9156 35.6628 31.5768C37.3411 32.2384 38.5699 32.8051 39.3505 33.275C40.131 33.7447 40.7564 34.1428 41.2276 34.4656C43.9663 33.7015 46.7925 33.3193 49.7071 33.3193C52.6216 33.3193 55.4485 33.7015 58.1873 34.4656L59.8655 33.4077C61.0131 32.7018 62.3683 32.0549 63.9278 31.4669C65.4883 30.8791 66.6815 30.7172 67.5063 30.9822C68.8307 34.3045 68.9487 37.3031 67.8588 39.978C70.1847 42.4772 71.3483 45.5058 71.3483 49.0631C71.3483 51.5619 71.0455 53.7737 70.443 55.6997C69.8397 57.626 69.0599 59.1684 68.1034 60.3303C67.1457 61.492 65.9531 62.4696 64.5254 63.2629C63.0973 64.0569 61.7129 64.6299 60.3736 64.983C59.0338 65.3361 57.5251 65.6015 55.8471 65.7779C57.3776 67.1004 58.1429 69.188 58.1429 72.0396V81.344C58.1429 81.8726 58.327 82.3139 58.6955 82.6665C59.0635 83.0185 59.6446 83.1222 60.4397 82.9747C67.271 80.7113 72.8431 76.6321 77.1561 70.7372C81.4687 64.8428 83.6258 58.2063 83.6258 50.8261C83.6243 44.683 82.1071 39.0168 79.0759 33.8277Z" fill="white"/>
</svg>
