<svg width="100" height="100" viewBox="0 0 100 100" fill="none" xmlns="http://www.w3.org/2000/svg">
<rect x="16" y="12" width="68" height="79" fill="white"/>
<path d="M74.8612 0H25.0595C11.2609 0 0 11.2698 0 25.0794V75C0 88.7302 11.2609 100 25.0595 100H74.9405C88.7391 100 100 88.7302 100 74.9206V25.0794C99.9207 11.2698 88.6598 0 74.8612 0ZM33.3069 80.9524H19.0325V39.6825H33.3069V80.9524ZM26.0904 33.3333C22.046 33.3333 18.7946 30.0794 18.7946 26.0317C18.7946 21.9841 22.046 18.7302 26.0904 18.7302C30.1348 18.7302 33.3862 21.9841 33.3862 26.0317C33.3069 30.0794 30.0555 33.3333 26.0904 33.3333ZM80.9675 80.9524H80.8882H68.9929V60.9524C68.9929 56.1111 68.3584 49.9206 61.7764 49.9206C55.0357 49.9206 53.9255 55.1587 53.9255 60.6349V80.9524H42.0301V39.6825H53.1324V45.2381H53.4496C55.1943 42.0635 59.2387 39.6032 65.5829 39.6032C78.6677 39.6032 80.9675 47.1429 80.9675 58.3333V80.9524Z" fill="black"/>
</svg>
